<?xml version="1.0" standalone="no"?><!DOCTYPE svg PUBLIC "-//W3C//DTD SVG 1.1//EN" "http://www.w3.org/Graphics/SVG/1.1/DTD/svg11.dtd"><svg t="1592461448926" class="icon" viewBox="0 0 1024 1024" version="1.1" xmlns="http://www.w3.org/2000/svg" p-id="3252" xmlns:xlink="http://www.w3.org/1999/xlink" width="24" height="24"><defs><style type="text/css"></style></defs><path d="M864.1 673.3c65.8-73 91-145.2 91.5-146.6 3.1-9.2 3.1-19.1 0-28.3-0.9-3-103.5-298.9-444.8-298.9-39.6 0-75.7 4.3-109.1 11.4l79.4 79.4c9.7-0.6 19.4-1.3 29.6-1.3 239.3 0 332 172 354.4 223.6-16 35.8-37.4 69-63.5 98.4l62.5 62.3zM510.7 825.5c82.1 0 150-17.4 206.4-43.4l139.7 139.7c13.7 13.7 35.8 13.7 49.5 0l13.7-13.7c13.7-13.7 13.7-35.8 0-49.5L164.6 103.2c-13.7-13.7-35.8-13.7-49.5 0l-13.7 13.7c-13.7 13.7-13.7 35.8 0 49.5l123.7 123.7C108.2 377.4 66.5 496.4 65.8 498.3c-3.1 9.2-3.1 19.1 0 28.3 1 3 103.6 298.9 444.9 298.9z m-222.2-472l101.6 101.6c-23.3 49.8-15.1 111.4 25.7 152.2 40.8 40.8 102.4 49.1 152.2 25.7l80.5 80.5c-44.3 15.3-90.9 22.9-137.8 22.5-239.3 0-332-172-354.4-223.6 28.7-64 74.5-118.9 132.2-158.9z m0 0" p-id="3253" fill="#626ED4"></path></svg>