<?xml version="1.0" standalone="no"?><!DOCTYPE svg PUBLIC "-//W3C//DTD SVG 1.1//EN" "http://www.w3.org/Graphics/SVG/1.1/DTD/svg11.dtd"><svg t="1592461391703" class="icon" viewBox="0 0 1024 1024" version="1.1" xmlns="http://www.w3.org/2000/svg" p-id="1732" xmlns:xlink="http://www.w3.org/1999/xlink" width="24" height="24"><defs><style type="text/css"></style></defs><path d="M510.7 378.3c-73.9 0.5-133.7 60.3-134.1 134.2 0 73.4 60.7 134.1 134.1 134.1 73.4 0 134.2-60.7 134.2-134.1-0.1-73.4-60.8-134.2-134.2-134.2z m0 0" p-id="1733" fill="#626ED4"></path><path d="M510.7 199.5c-341.3 0-443.9 295.9-444.8 298.9-3.1 9.2-3.1 19.1 0 28.3 0.9 3 103.5 298.8 444.8 298.8s443.9-295.9 444.8-298.9c3.1-9.2 3.1-19.1 0-28.3-0.9-2.9-103.5-298.8-444.8-298.8z m0 536.6c-239.3 0-332-172-354.4-223.6 22.5-51.8 115.3-223.6 354.4-223.6 239.3 0 332 172 354.4 223.6-22.5 51.8-115.3 223.6-354.4 223.6z m0 0" p-id="1734" fill="#626ED4"></path></svg>